<?xml version="1.0" standalone="no"?>
<!DOCTYPE svg PUBLIC "-//W3C//DTD SVG 20010904//EN"
 "http://www.w3.org/TR/2001/REC-SVG-20010904/DTD/svg10.dtd">
<svg version="1.0" xmlns="http://www.w3.org/2000/svg"
 width="140.000000pt" height="50.000000pt" viewBox="0 0 140.000000 50.000000"
 preserveAspectRatio="xMidYMid meet">

<g transform="translate(0.000000,50.000000) scale(0.100000,-0.100000)"
fill="#000000" stroke="none">
<path d="M1245 478 c-15 -22 -14 -23 6 -26 11 -2 30 4 40 14 19 17 19 19 2 25
-28 11 -31 11 -48 -13z"/>
<path d="M536 407 c-47 -47 -24 -96 53 -117 50 -13 56 -40 10 -40 -17 0 -38 4
-48 10 -14 7 -23 5 -36 -10 -17 -19 -17 -20 18 -35 68 -28 142 -13 154 33 l6
25 14 -27 c33 -62 154 -62 182 1 6 13 11 60 11 103 l0 80 -30 0 -30 0 0 -78
c0 -80 -9 -102 -41 -102 -32 0 -49 40 -49 112 0 66 -1 68 -25 68 -24 0 -25 -2
-25 -72 l0 -71 -22 20 c-13 12 -42 26 -65 32 -26 7 -43 18 -43 26 0 17 42 20
70 5 15 -8 21 -6 31 11 15 29 1 41 -60 47 -43 4 -53 1 -75 -21z"/>
<path d="M915 326 c-4 -57 -4 -109 -1 -115 4 -6 18 -11 31 -11 23 0 24 4 27
68 l3 67 25 -42 c14 -24 27 -43 30 -43 3 0 17 19 32 43 l28 42 0 -67 0 -68 30
0 30 0 0 115 0 115 -30 0 c-25 0 -35 -8 -59 -47 l-29 -47 -29 47 c-22 37 -33
47 -54 47 l-27 0 -7 -104z"/>
<path d="M1170 315 l0 -116 88 3 c82 3 87 4 90 26 3 21 0 22 -62 22 -59 0 -66
2 -66 20 0 18 7 20 55 20 52 0 55 1 55 25 0 24 -3 25 -55 25 -48 0 -55 2 -55
20 0 18 7 20 60 20 57 0 60 1 60 25 0 25 -1 25 -85 25 l-85 0 0 -115z"/>
<path d="M351 394 c0 -11 3 -14 6 -6 3 7 2 16 -1 19 -3 4 -6 -2 -5 -13z"/>
<path d="M146 353 l-39 -4 7 -115 6 -114 -35 0 c-43 0 -51 -15 -32 -61 l13
-34 168 -1 167 -1 18 38 c23 46 15 61 -35 62 l-39 2 3 111 4 111 -39 6 c-39 7
-98 7 -167 0z m24 -63 c0 -5 -2 -10 -4 -10 -3 0 -8 5 -11 10 -3 6 -1 10 4 10
6 0 11 -4 11 -10z m103 -17 c7 -11 -69 -94 -77 -86 -13 13 -5 54 14 73 20 20
55 27 63 13z m17 -93 c0 -5 -4 -10 -10 -10 -5 0 -10 5 -10 10 0 6 5 10 10 10
6 0 10 -4 10 -10z m30 -94 c8 -3 31 -7 50 -9 19 -2 -22 -5 -92 -5 -112 -2
-140 3 -124 19 6 6 148 2 166 -5z m-203 -12 c-3 -3 -12 -4 -19 -1 -8 3 -5 6 6
6 11 1 17 -2 13 -5z"/>
<path d="M507 163 c-11 -10 -8 -43 4 -43 5 0 7 5 4 10 -4 6 -1 17 5 25 12 15
0 22 -13 8z"/>
<path d="M561 156 c-16 -19 -6 -36 20 -36 15 0 20 6 17 22 -4 27 -21 33 -37
14z m29 -11 c0 -8 -4 -15 -10 -15 -5 0 -10 7 -10 15 0 8 5 15 10 15 6 0 10 -7
10 -15z"/>
<path d="M610 164 c0 -5 6 -19 14 -29 13 -18 14 -18 25 3 14 26 14 43 0 19
-10 -18 -11 -18 -25 0 -7 10 -14 13 -14 7z"/>
<path d="M670 145 c0 -14 4 -25 9 -25 5 0 8 8 7 18 -2 9 4 20 13 24 12 5 11 7
-6 7 -18 1 -23 -5 -23 -24z"/>
<path d="M720 148 c0 -17 6 -24 20 -24 26 0 24 39 -2 44 -13 3 -18 -3 -18 -20z
m30 2 c0 -5 -4 -10 -10 -10 -5 0 -10 5 -10 10 0 6 5 10 10 10 6 0 10 -4 10
-10z"/>
<path d="M811 156 c-1 -16 -4 -17 -13 -8 -18 18 -28 14 -27 -10 0 -13 3 -17 6
-10 4 10 8 10 19 1 19 -15 27 -7 21 23 -3 18 -5 19 -6 4z"/>
<path d="M843 163 c-15 -5 -18 -43 -4 -43 5 0 8 6 7 13 0 6 4 12 9 12 6 0 9
-6 9 -12 -1 -7 3 -13 8 -13 12 0 6 43 -7 46 -5 1 -16 0 -22 -3z"/>
<path d="M930 145 c0 -20 3 -26 9 -17 4 8 12 14 16 14 4 0 12 -6 16 -14 6 -9
9 -4 9 16 0 22 -3 26 -13 17 -10 -8 -17 -7 -25 1 -9 9 -12 5 -12 -17z"/>
<path d="M990 145 c0 -14 4 -25 9 -25 4 0 6 11 3 25 -2 14 -6 25 -8 25 -2 0
-4 -11 -4 -25z"/>
<path d="M1050 145 c1 -26 2 -28 11 -12 8 14 8 22 0 30 -8 8 -11 3 -11 -18z"/>
<path d="M1143 163 c-15 -5 -18 -43 -4 -43 5 0 8 8 7 18 0 9 5 16 12 14 8 -1
11 2 7 8 -3 5 -7 10 -8 9 -1 0 -8 -3 -14 -6z"/>
<path d="M1210 145 c0 -23 2 -24 20 -15 24 13 26 26 4 34 -23 9 -24 8 -24 -19z
m25 5 c3 -5 1 -10 -4 -10 -6 0 -11 5 -11 10 0 6 2 10 4 10 3 0 8 -4 11 -10z"/>
<path d="M1262 145 c-7 -15 -8 -25 -2 -25 6 0 10 8 10 17 0 15 2 14 15 -3 13
-18 14 -18 8 4 -8 32 -19 35 -31 7z"/>
<path d="M1310 145 c0 -14 4 -25 9 -25 4 0 6 11 3 25 -2 14 -6 25 -8 25 -2 0
-4 -11 -4 -25z"/>
<path d="M1027 154 c-4 -4 -7 -14 -7 -23 0 -11 3 -12 11 -4 6 6 10 16 7 23 -2
6 -7 8 -11 4z"/>
<path d="M1077 145 c-4 -8 -2 -17 3 -20 6 -4 10 3 10 14 0 25 -6 27 -13 6z"/>
<path d="M1112 140 c0 -14 2 -19 5 -12 2 6 2 18 0 25 -3 6 -5 1 -5 -13z"/>
<path d="M1192 140 c0 -14 2 -19 5 -12 2 6 2 18 0 25 -3 6 -5 1 -5 -13z"/>
<path d="M858 83 c89 -2 235 -2 325 0 89 1 16 3 -163 3 -179 0 -252 -2 -162
-3z"/>
<path d="M677 43 c-10 -9 -9 -23 1 -23 5 0 9 7 9 15 0 17 -1 18 -10 8z"/>
<path d="M861 34 c0 -11 3 -14 6 -6 3 7 2 16 -1 19 -3 4 -6 -2 -5 -13z"/>
<path d="M990 38 c0 -4 7 -8 15 -8 8 0 15 4 15 8 0 5 -7 9 -15 9 -8 0 -15 -4
-15 -9z"/>
<path d="M1092 34 c10 -10 20 -16 22 -13 3 3 -5 11 -17 18 -21 13 -21 12 -5
-5z"/>
<path d="M1130 40 c0 -6 7 -10 15 -10 8 0 15 2 15 4 0 2 -7 6 -15 10 -8 3 -15
1 -15 -4z"/>
<path d="M957 29 c7 -7 15 -10 18 -7 3 3 -2 9 -12 12 -14 6 -15 5 -6 -5z"/>
<path d="M1247 29 c7 -7 15 -10 18 -7 3 3 -2 9 -12 12 -14 6 -15 5 -6 -5z"/>
</g>
</svg>
