<?xml version="1.0" standalone="no"?>
<!DOCTYPE svg PUBLIC "-//W3C//DTD SVG 20010904//EN"
 "http://www.w3.org/TR/2001/REC-SVG-20010904/DTD/svg10.dtd">
<svg version="1.0" xmlns="http://www.w3.org/2000/svg"
 width="858.000000pt" height="802.000000pt" viewBox="0 0 858.000000 802.000000"
 preserveAspectRatio="xMidYMid meet">

<g transform="translate(0.000000,802.000000) scale(0.100000,-0.100000)"
fill="#000000" stroke="none">
<path d="M4405 7668 c-9 -29 -21 -159 -15 -163 4 -3 11 23 14 58 10 91 16 105
39 110 18 3 16 5 -6 6 -15 0 -29 -5 -32 -11z"/>
<path d="M4010 7663 c21 -8 30 -24 30 -55 0 -16 3 -28 8 -28 4 0 6 20 4 45 -4
41 -6 45 -31 44 -15 0 -20 -3 -11 -6z"/>
<path d="M4073 7662 c-8 -5 -10 -21 -6 -45 8 -49 23 -47 23 2 0 36 3 40 28 44
l27 4 -30 1 c-16 1 -35 -2 -42 -6z"/>
<path d="M4159 7653 c5 -11 13 -50 17 -87 4 -37 10 -63 14 -59 12 13 -13 156
-28 161 -11 3 -12 0 -3 -15z"/>
<path d="M4509 7652 c6 -11 11 -34 11 -50 0 -39 33 -38 38 1 5 37 24 49 79 45
l48 -3 3 -42 c3 -38 6 -43 28 -43 21 0 24 4 24 39 0 37 2 40 33 44 28 3 26 4
-10 5 l-43 2 0 -41 c0 -26 -4 -38 -11 -33 -6 3 -9 22 -7 40 5 41 -8 47 -93 42
l-54 -3 -6 -40 c-6 -42 -16 -33 -21 19 -2 16 -9 31 -16 34 -11 3 -12 0 -3 -16z"/>
<path d="M3780 7651 c-24 -7 -42 -41 -21 -41 6 0 11 7 11 15 0 8 8 15 18 15 9
0 34 3 55 6 37 7 37 7 37 -29 0 -36 15 -57 30 -41 4 5 11 26 14 47 l7 37 -63
-1 c-35 -1 -74 -4 -88 -8z"/>
<path d="M4823 7576 c-1 -36 -7 -74 -13 -85 -9 -18 -8 -21 7 -21 16 0 18 11
21 85 1 47 -1 85 -5 85 -5 0 -9 -29 -10 -64z"/>
<path d="M3609 7612 c5 -10 13 -46 17 -80 6 -54 9 -62 27 -62 18 0 19 1 5 13
-9 6 -19 35 -22 65 -8 61 -15 82 -27 82 -6 0 -6 -7 0 -18z"/>
<path d="M3502 7580 c2 -22 0 -40 -4 -40 -5 0 -8 13 -8 29 0 34 -14 41 -76 41
l-44 0 0 -51 c0 -55 -14 -58 -28 -6 -5 20 -16 33 -28 35 -17 3 -17 2 -3 -10 9
-7 22 -28 29 -46 19 -49 45 -39 45 18 0 44 1 45 33 48 42 4 62 -12 62 -49 0
-22 5 -29 19 -29 27 0 31 9 24 58 -7 54 -26 55 -21 2z"/>
<path d="M4977 7613 c-2 -5 -10 -33 -17 -63 -7 -30 -17 -60 -22 -66 -5 -8 -3
-14 7 -18 11 -4 15 1 15 17 1 27 22 107 33 125 5 7 4 12 -2 12 -5 0 -12 -3
-14 -7z"/>
<path d="M5068 7603 c7 -2 12 -22 12 -45 0 -32 3 -39 17 -36 10 2 20 17 24 37
4 18 13 37 21 42 8 6 -6 8 -37 8 -27 0 -44 -3 -37 -6z"/>
<path d="M3760 7547 c0 -31 5 -59 11 -63 7 -4 9 11 4 52 -10 77 -15 81 -15 11z"/>
<path d="M5198 7583 c7 -2 12 -22 12 -44 0 -32 3 -39 20 -39 13 0 20 7 20 19
0 11 3 26 6 35 3 9 2 16 -3 16 -5 0 -14 -12 -20 -27 -10 -26 -10 -26 -5 10 4
34 3 37 -19 36 -13 0 -18 -3 -11 -6z"/>
<path d="M3215 7559 c-7 -10 19 -146 35 -184 16 -37 11 37 -5 91 -21 70 -19
92 8 97 19 4 19 4 -5 6 -15 0 -30 -4 -33 -10z"/>
<path d="M5293 7563 c19 -5 24 -57 6 -69 -6 -3 -8 -16 -5 -28 3 -13 -2 -33
-11 -46 -10 -14 -16 -37 -14 -52 1 -17 -3 -30 -11 -33 -10 -4 -13 -16 -10 -35
5 -32 1 -34 -50 -30 -16 1 -28 -4 -28 -10 0 -6 8 -10 18 -9 38 3 43 -1 40 -33
-2 -27 -7 -33 -25 -32 -14 0 -25 -7 -28 -17 -4 -10 -18 -27 -31 -38 -14 -11
-23 -24 -20 -29 5 -8 -4 -43 -25 -97 -21 -57 -19 -64 24 -75 23 -6 49 -13 58
-16 15 -4 22 19 89 321 10 44 32 135 49 202 17 68 31 125 31 128 0 3 -17 4
-37 4 -21 -1 -30 -3 -20 -6z"/>
<path d="M5195 7410 c3 -5 8 -10 11 -10 2 0 4 5 4 10 0 6 -5 10 -11 10 -5 0
-7 -4 -4 -10z"/>
<path d="M3560 7366 c0 -2 7 -6 15 -10 8 -3 15 -1 15 4 0 6 -7 10 -15 10 -8 0
-15 -2 -15 -4z"/>
<path d="M5196 7352 c-3 -6 -1 -14 5 -17 14 -9 20 -2 10 14 -6 8 -11 9 -15 3z"/>
<path d="M3260 7330 c0 -35 26 -105 34 -91 7 11 -8 77 -24 101 -8 12 -10 10
-10 -10z"/>
<path d="M4785 7330 c-3 -5 -1 -10 4 -10 6 0 11 5 11 10 0 6 -2 10 -4 10 -3 0
-8 -4 -11 -10z"/>
<path d="M3520 7305 c0 -11 5 -27 10 -35 8 -12 10 -12 10 5 0 11 -5 27 -10 35
-8 12 -10 12 -10 -5z"/>
<path d="M3791 7288 c-1 -20 4 -40 9 -43 12 -7 12 32 0 60 -7 16 -9 13 -9 -17z"/>
<path d="M3654 7294 c3 -9 6 -24 6 -35 0 -10 3 -19 8 -19 4 0 7 16 7 35 0 23
-5 35 -14 35 -8 0 -11 -6 -7 -16z"/>
<path d="M5038 7303 c7 -3 16 -2 19 1 4 3 -2 6 -13 5 -11 0 -14 -3 -6 -6z"/>
<path d="M4378 7274 c-5 -4 -8 -23 -8 -43 0 -25 3 -32 11 -24 6 6 9 25 7 43
-2 17 -6 28 -10 24z"/>
<path d="M4187 7228 c1 -24 2 -56 4 -73 l1 -30 7 30 c6 29 8 30 64 31 62 1 92
13 36 15 -96 2 -94 2 -97 37 -5 47 -17 39 -15 -10z"/>
<path d="M3540 7229 c0 -11 4 -18 10 -14 5 3 7 12 3 20 -7 21 -13 19 -13 -6z"/>
<path d="M3960 7230 c-17 -17 -20 -33 -20 -126 0 -104 0 -105 23 -102 21 3 22
7 19 70 -5 93 4 130 31 126 26 -4 35 -32 36 -120 1 -37 6 -70 11 -73 6 -4 10
29 10 93 0 85 -3 103 -21 126 -25 31 -61 34 -89 6z"/>
<path d="M4537 7222 c-16 -18 -27 -63 -42 -174 l-6 -48 33 0 33 0 1 64 c2 87
10 116 34 116 10 0 25 -9 33 -21 l15 -21 7 22 c17 54 -70 104 -108 62z"/>
<path d="M3291 7204 c0 -11 3 -14 6 -6 3 7 2 16 -1 19 -3 4 -6 -2 -5 -13z"/>
<path d="M3333 7173 c-37 -5 -37 -3 -2 -145 10 -42 19 -86 19 -97 0 -23 1 -24
23 -15 11 4 13 12 6 32 -4 15 -15 58 -24 96 -14 60 -14 71 -2 84 36 35 97 -55
97 -144 0 -33 4 -44 16 -44 10 0 14 6 10 18 -3 9 -9 43 -15 74 -13 70 -32 110
-65 132 -14 9 -27 15 -28 14 -2 0 -17 -3 -35 -5z"/>
<path d="M3800 7141 c0 -17 5 -31 10 -31 6 0 10 11 10 24 0 14 -4 28 -10 31
-6 4 -10 -7 -10 -24z"/>
<path d="M3692 7125 c0 -16 2 -22 5 -12 2 9 2 23 0 30 -3 6 -5 -1 -5 -18z"/>
<path d="M3560 7123 c0 -10 4 -25 10 -33 6 -10 9 -5 8 18 -1 33 -18 47 -18 15z"/>
<path d="M4315 7130 c4 -6 11 -8 16 -5 14 9 11 15 -7 15 -8 0 -12 -5 -9 -10z"/>
<path d="M4350 7133 c0 -4 8 -17 16 -28 15 -20 16 -20 12 4 -3 22 -28 44 -28
24z"/>
<path d="M4755 7050 c-3 -5 1 -10 10 -10 9 0 13 5 10 10 -3 6 -8 10 -10 10 -2
0 -7 -4 -10 -10z"/>
<path d="M4621 7014 c0 -11 3 -14 6 -6 3 7 2 16 -1 19 -3 4 -6 -2 -5 -13z"/>
<path d="M4171 6941 c-8 -5 14 -7 55 -4 38 3 71 7 73 9 9 8 -115 3 -128 -5z"/>
<path d="M4323 6943 c9 -2 23 -2 30 0 6 3 -1 5 -18 5 -16 0 -22 -2 -12 -5z"/>
<path d="M4375 6940 c4 -6 11 -8 16 -5 14 9 11 15 -7 15 -8 0 -12 -5 -9 -10z"/>
<path d="M4048 6933 c6 -2 18 -2 25 0 6 3 1 5 -13 5 -14 0 -19 -2 -12 -5z"/>
<path d="M4568 6933 c7 -3 16 -2 19 1 4 3 -2 6 -13 5 -11 0 -14 -3 -6 -6z"/>
<path d="M3996 6915 c4 -8 8 -15 10 -15 2 0 4 7 4 15 0 8 -4 15 -10 15 -5 0
-7 -7 -4 -15z"/>
<path d="M4760 6919 c0 -5 5 -7 10 -4 6 3 10 8 10 11 0 2 -4 4 -10 4 -5 0 -10
-5 -10 -11z"/>
<path d="M3830 6904 c0 -12 3 -14 13 -6 6 6 26 12 42 15 24 3 22 4 -12 6 -34
1 -43 -3 -43 -15z"/>
<path d="M3698 6893 c6 -2 18 -2 25 0 6 3 1 5 -13 5 -14 0 -19 -2 -12 -5z"/>
<path d="M4267 6880 c-3 -12 0 -20 8 -20 8 0 11 8 8 20 -3 11 -7 20 -8 20 -1
0 -5 -9 -8 -20z"/>
<path d="M3331 6878 c-1 -9 12 -29 29 -45 19 -18 28 -34 24 -45 -3 -10 -1 -18
4 -18 17 0 20 12 9 46 -7 23 -16 34 -29 34 -10 0 -23 10 -28 23 -6 15 -9 17
-9 5z"/>
<path d="M4458 6879 c-2 -6 -26 -13 -53 -15 -97 -9 -55 -14 91 -12 85 1 115 3
69 5 -57 3 -83 8 -91 19 -8 10 -13 11 -16 3z"/>
<path d="M4656 6865 c-3 -8 -1 -15 4 -15 6 0 10 7 10 15 0 8 -2 15 -4 15 -2 0
-6 -7 -10 -15z"/>
<path d="M3913 6858 c-2 -5 69 -8 158 -8 89 0 160 3 156 6 -9 9 -308 10 -314
2z"/>
<path d="M5180 6860 c-13 -8 -12 -10 3 -10 9 0 17 5 17 10 0 12 -1 12 -20 0z"/>
<path d="M3418 6853 c7 -3 16 -2 19 1 4 3 -2 6 -13 5 -11 0 -14 -3 -6 -6z"/>
<path d="M4856 6851 c-4 -7 -5 -15 -2 -18 9 -9 19 4 14 18 -4 11 -6 11 -12 0z"/>
<path d="M4938 6853 c6 -2 18 -2 25 0 6 3 1 5 -13 5 -14 0 -19 -2 -12 -5z"/>
<path d="M3725 6839 c-24 -5 -20 -7 23 -8 28 0 52 1 52 3 0 8 -47 11 -75 5z"/>
<path d="M3549 6833 c19 -4 21 -7 10 -14 -11 -7 -9 -9 9 -9 13 0 22 6 22 15 0
11 -10 15 -32 14 -27 -1 -28 -3 -9 -6z"/>
<path d="M4763 6833 c15 -2 39 -2 55 0 15 2 2 4 -28 4 -30 0 -43 -2 -27 -4z"/>
<path d="M5033 6819 c3 -15 18 -26 53 -38 27 -10 57 -21 67 -26 13 -5 17 -2
17 15 0 16 -4 20 -15 16 -9 -3 -36 0 -60 6 -32 9 -45 17 -45 30 0 10 -4 18
-10 18 -5 0 -8 -9 -7 -21z"/>
<path d="M4938 6813 c12 -2 30 -2 40 0 9 3 -1 5 -23 4 -22 0 -30 -2 -17 -4z"/>
<path d="M5150 6810 c0 -5 5 -10 10 -10 6 0 10 5 10 10 0 6 -4 10 -10 10 -5 0
-10 -4 -10 -10z"/>
<path d="M3448 6793 c6 -2 18 -2 25 0 6 3 1 5 -13 5 -14 0 -19 -2 -12 -5z"/>
<path d="M4130 6789 c-205 -7 -296 -17 -540 -56 -91 -15 -178 -27 -193 -27
l-28 -1 6 -65 c3 -36 12 -220 21 -410 14 -333 34 -610 53 -735 8 -58 6 -85 -8
-85 -3 0 -33 7 -66 15 -56 13 -154 21 -144 11 2 -3 49 -12 104 -21 108 -17
135 -32 135 -76 l0 -29 -192 -3 -193 -2 197 -3 196 -2 8 -42 c5 -24 9 -47 9
-53 1 -5 9 -24 18 -42 23 -44 22 -47 -18 -62 -30 -10 -46 -10 -101 4 -60 15
-273 24 -314 14 -12 -3 -15 9 -13 70 1 41 -2 82 -8 92 -7 13 -5 19 9 22 13 4
13 5 -4 6 -16 1 -28 16 -48 61 -15 33 -28 63 -29 67 -1 3 52 6 118 6 97 -1
109 1 65 7 -86 13 -210 12 -210 -1 0 -6 20 -49 45 -95 43 -78 45 -87 45 -162
l0 -80 -55 -26 c-30 -15 -64 -40 -75 -57 -40 -55 -37 -78 46 -329 42 -129 85
-247 95 -261 43 -61 203 -95 394 -85 61 4 184 13 275 21 455 41 705 37 1185
-15 316 -35 486 -31 572 11 53 27 59 38 144 274 22 61 58 137 80 170 37 55 40
64 37 113 -3 32 -13 64 -25 80 -21 28 -92 87 -115 94 -8 3 -14 31 -16 81 -4
75 -3 77 47 176 l52 101 -168 -1 c-92 0 -190 -4 -218 -8 -27 -4 41 -6 153 -3
111 3 202 2 202 -2 0 -3 -19 -43 -42 -89 -39 -77 -41 -87 -40 -160 l1 -79 -62
8 c-80 10 -162 8 -236 -6 -67 -12 -132 -1 -189 31 -18 11 -39 19 -47 19 -23 0
-27 18 -11 48 8 15 26 61 40 102 14 40 27 75 29 77 2 1 37 12 78 22 80 21 63
29 -20 9 -28 -6 -53 -9 -56 -6 -3 3 4 61 15 129 27 171 38 360 46 809 6 382 6
385 -13 367 -11 -9 -22 -15 -24 -13 -10 10 -275 56 -379 65 -148 14 -386 18
-620 10z m-302 -454 c40 -12 41 -24 2 -31 -25 -5 -32 -14 -41 -48 -12 -42 -15
-41 -33 17 -3 9 -19 20 -35 23 -33 7 -33 34 0 34 18 0 26 11 44 65 6 17 9 15
19 -15 9 -26 21 -37 44 -45z m751 -166 c28 -12 51 -26 51 -31 0 -6 -28 -40
-63 -77 -35 -36 -99 -104 -143 -151 -43 -47 -137 -148 -209 -224 -71 -76 -131
-142 -133 -147 -8 -22 -29 -5 -49 39 -34 74 -46 147 -39 231 14 173 131 315
306 373 74 25 206 19 279 -13z m57 -596 c9 -37 22 -53 45 -53 25 0 34 -19 12
-26 -37 -11 -47 -21 -58 -60 -10 -33 -13 -36 -19 -19 -21 56 -26 62 -55 68
-41 8 -39 23 3 37 28 9 35 17 40 45 8 42 23 45 32 8z m199 -691 c15 -63 34
-86 91 -108 46 -17 45 -17 380 2 123 7 188 -5 182 -34 -8 -43 -307 -43 -803
-1 -164 15 -675 14 -852 -1 -153 -13 -181 -6 -129 32 31 24 56 73 56 113 0 14
6 28 13 31 7 2 46 -9 87 -26 145 -60 226 -74 420 -73 209 0 319 21 439 81 42
22 82 39 90 38 9 -1 19 -21 26 -54z m-1360 -132 c14 -5 25 -14 25 -20 0 -13
-256 -14 -264 -1 -7 11 12 27 39 34 28 8 170 -1 200 -13z"/>
<path d="M7051 4597 c-50 -92 -129 -233 -177 -314 -23 -39 -39 -74 -36 -77 3
-3 78 -6 166 -6 l161 0 130 112 c210 180 237 206 226 212 -5 4 -76 28 -158 55
-211 69 -250 81 -265 81 -7 0 -28 -28 -47 -63z"/>
<path d="M1554 4075 c-89 -16 -221 -73 -290 -125 -249 -188 -288 -572 -79
-775 96 -94 249 -159 559 -235 246 -60 313 -104 302 -195 -6 -49 -47 -89 -108
-106 -63 -17 -256 -6 -348 21 -80 23 -254 108 -300 146 -15 13 -36 24 -46 23
-11 0 -43 -30 -74 -68 -30 -38 -88 -107 -129 -155 -84 -99 -85 -90 15 -162
123 -87 247 -141 454 -196 76 -20 108 -23 295 -23 l210 0 111 38 c257 86 380
231 419 495 8 49 22 47 31 -6 3 -20 28 -84 55 -141 43 -90 60 -115 127 -180
89 -88 142 -119 285 -167 251 -85 581 -64 809 52 157 79 272 219 326 396 46
148 52 255 50 818 l-3 525 -247 3 -247 2 -4 -557 c-4 -585 -5 -602 -50 -689
-22 -43 -84 -101 -137 -127 -38 -19 -61 -22 -155 -22 -100 0 -115 3 -161 27
-71 37 -126 103 -155 185 l-24 68 -3 558 -3 557 -247 -2 -247 -3 -5 -550 -5
-550 -34 68 c-81 161 -270 268 -613 346 -159 36 -153 34 -240 73 -78 35 -104
74 -94 137 13 85 114 122 270 101 132 -18 255 -63 384 -142 17 -11 36 -18 41
-16 16 5 231 316 231 333 0 17 -72 66 -169 115 -92 47 -255 97 -356 109 -118
14 -312 13 -401 -4z"/>
<path d="M5705 4055 c-7 -5 -33 -44 -58 -85 -25 -41 -63 -104 -86 -140 -22
-36 -52 -85 -67 -110 -121 -199 -219 -350 -228 -350 -6 0 -36 39 -66 88 -29
48 -94 152 -143 232 -50 80 -121 196 -159 258 l-70 112 -264 0 -264 0 0 -905
0 -905 242 2 243 3 1 507 c0 280 3 511 6 514 7 7 18 -8 127 -176 48 -74 128
-196 176 -270 49 -74 103 -159 122 -187 18 -29 37 -53 42 -53 5 0 50 64 102
143 51 78 153 233 226 345 73 111 137 202 143 202 7 0 10 -169 10 -515 l0
-515 245 0 245 0 0 904 0 904 -47 7 c-69 10 -464 2 -478 -10z"/>
<path d="M6343 4063 c-10 -4 -13 -195 -13 -909 l0 -904 733 2 732 3 0 205 0
205 -488 3 -488 2 3 147 3 146 423 -2 c315 -2 427 1 438 10 11 9 14 47 14 184
0 96 -3 180 -6 189 -5 14 -54 16 -440 16 l-434 0 0 140 0 140 469 0 c258 0
476 3 485 6 14 5 16 33 16 204 0 156 -3 200 -14 209 -10 8 -202 11 -717 10
-387 -1 -710 -3 -716 -6z"/>
<path d="M1059 1965 c-77 -40 -119 -107 -119 -190 0 -168 185 -264 350 -182
l45 22 3 98 3 98 -88 -3 -88 -3 -3 -37 c-3 -36 -2 -37 35 -40 35 -3 38 -6 38
-33 0 -24 -5 -31 -31 -38 -79 -23 -154 34 -154 116 0 98 74 142 180 107 41
-13 42 -13 65 16 13 16 23 34 21 39 -1 6 -22 20 -47 32 -62 31 -149 30 -210
-2z"/>
<path d="M1515 1962 c-73 -40 -108 -96 -113 -180 -4 -62 -2 -70 30 -117 124
-184 411 -104 412 115 1 160 -184 262 -329 182z m178 -92 c31 -25 51 -80 42
-120 -4 -16 -19 -43 -35 -60 -24 -26 -35 -30 -78 -30 -45 0 -53 4 -81 35 -47
54 -42 133 13 177 30 25 106 24 139 -2z"/>
<path d="M2218 1983 l-46 -4 -27 -77 c-15 -42 -33 -92 -41 -110 -8 -18 -14
-39 -14 -47 0 -31 -28 -13 -42 28 -9 23 -28 78 -44 122 l-29 80 -58 3 c-31 2
-57 -1 -57 -5 0 -5 35 -96 79 -203 l78 -195 52 -3 51 -3 21 48 c43 97 140 338
142 352 2 17 -5 18 -65 14z"/>
<path d="M3755 1971 c-48 -22 -99 -74 -115 -116 -32 -85 1 -206 69 -250 149
-98 334 -21 357 149 12 87 -33 168 -118 210 -63 31 -135 34 -193 7z m169 -110
c51 -53 43 -144 -16 -185 -12 -9 -41 -16 -64 -16 -76 0 -125 75 -102 157 13
47 51 73 107 73 39 0 52 -5 75 -29z"/>
<path d="M5670 1982 c-6 -2 -10 -47 -10 -110 l-1 -107 -40 45 c-22 25 -61 73
-86 108 l-47 62 -53 0 -53 0 0 -205 0 -205 55 0 55 0 0 110 c0 61 3 110 8 109
4 0 45 -49 91 -110 l84 -109 49 0 48 0 0 204 0 204 -45 4 c-24 2 -49 2 -55 0z"/>
<path d="M5860 1982 c-6 -2 -10 -78 -10 -208 l0 -204 55 0 55 0 0 204 0 204
-45 4 c-24 2 -49 2 -55 0z"/>
<path d="M6155 1971 c-141 -65 -169 -255 -52 -358 80 -70 204 -70 284 0 l36
31 -34 28 c-40 33 -44 34 -76 8 -16 -12 -41 -20 -65 -20 -97 0 -143 132 -71
204 33 34 98 36 137 5 l27 -21 35 27 c20 16 34 34 32 43 -2 10 -26 29 -53 44
-61 34 -139 37 -200 9z"/>
<path d="M6484 1981 c-2 -2 -4 -96 -4 -208 l0 -203 55 0 55 0 0 204 0 204 -51
4 c-28 1 -53 1 -55 -1z"/>
<path d="M6674 1981 c-2 -2 -4 -96 -4 -208 l0 -203 55 0 54 0 3 58 3 57 68 7
c81 8 126 31 149 78 37 73 12 152 -59 189 -30 15 -64 20 -152 23 -62 1 -115 1
-117 -1z m217 -101 c13 -8 19 -21 19 -45 0 -44 -32 -68 -87 -63 -37 3 -38 4
-41 47 -2 24 -1 50 2 57 6 17 78 19 107 4z"/>
<path d="M7160 1943 c-12 -27 -40 -93 -62 -148 -22 -55 -49 -117 -60 -138 -10
-21 -23 -49 -28 -62 -9 -25 -9 -25 49 -25 59 0 60 0 71 34 13 42 23 46 111 46
l69 0 20 -40 c20 -39 21 -40 76 -40 41 0 55 3 51 13 -3 6 -33 77 -67 157 -33
80 -72 169 -85 198 l-25 52 -49 0 c-50 0 -50 0 -71 -47z m94 -136 c32 -78 32
-77 -18 -77 -25 0 -47 4 -50 9 -7 12 32 101 44 101 6 0 16 -15 24 -33z"/>
<path d="M7516 1982 c-3 -3 -6 -97 -6 -209 l0 -203 155 0 155 0 0 45 0 44 -97
3 -98 3 -5 160 -5 160 -47 1 c-26 1 -49 -1 -52 -4z"/>
<path d="M2340 1775 l0 -205 165 0 165 0 0 45 0 45 -111 0 -110 0 3 38 3 37
98 3 98 3 -3 37 -3 37 -97 3 -98 3 0 34 0 34 108 3 107 3 3 43 3 42 -165 0
-166 0 0 -205z"/>
<path d="M2740 1774 l0 -205 53 3 52 3 5 60 c5 56 7 60 30 60 19 0 34 -15 68
-62 l43 -63 61 0 60 0 -18 28 c-10 15 -30 45 -46 66 l-28 40 35 36 c44 45 58
91 45 140 -21 78 -74 100 -235 100 l-125 0 0 -206z m231 106 c22 -12 27 -68 7
-88 -7 -7 -38 -12 -69 -12 l-57 0 -4 38 c-6 67 -2 72 53 72 28 0 59 -5 70 -10z"/>
<path d="M3170 1775 l0 -205 50 0 50 0 1 93 c0 50 4 100 7 110 7 16 10 15 33
-10 14 -15 54 -65 88 -110 l62 -83 49 0 50 0 0 205 0 205 -55 0 -55 0 0 -105
c0 -58 -3 -105 -7 -105 -8 1 -139 165 -155 195 -6 11 -25 15 -63 15 l-55 0 0
-205z"/>
<path d="M4406 1971 c-4 -5 -4 -42 -2 -83 3 -40 5 -128 5 -195 l1 -123 50 0
50 0 0 110 c0 66 4 110 10 110 5 0 29 -29 52 -65 24 -35 46 -65 50 -65 4 0 26
29 50 65 24 36 49 65 56 65 9 0 12 -29 12 -110 l0 -110 50 0 50 0 2 190 c0
105 1 196 2 203 1 8 -18 13 -57 15 l-57 3 -48 -75 c-26 -42 -51 -76 -57 -76
-5 0 -31 34 -57 75 l-47 75 -55 0 c-30 0 -57 -4 -60 -9z"/>
<path d="M4920 1837 c0 -131 2 -148 23 -187 32 -61 81 -85 172 -84 152 1 195
65 195 291 l0 123 -55 0 -55 0 0 -112 c0 -173 -16 -208 -94 -208 -25 0 -40 7
-55 26 -19 24 -21 40 -21 160 l0 134 -55 0 -55 0 0 -143z"/>
<path d="M2590 1355 l0 -55 2605 0 2605 0 0 55 0 55 -2605 0 -2605 0 0 -55z"/>
<path d="M3455 1073 c-33 -8 -81 -50 -95 -82 -27 -65 18 -152 89 -171 108 -29
203 79 155 176 -29 59 -92 91 -149 77z m82 -75 c49 -45 14 -128 -54 -128 -44
0 -73 30 -73 75 0 67 77 100 127 53z"/>
<path d="M4423 1061 c-74 -34 -99 -101 -63 -170 16 -32 33 -48 65 -62 49 -22
80 -19 133 13 37 23 40 33 12 48 -16 8 -26 7 -42 -5 -36 -24 -83 -19 -107 11
-28 35 -26 69 4 99 28 29 65 32 105 8 23 -13 32 -14 44 -4 22 18 10 37 -38 61
-52 24 -60 25 -113 1z"/>
<path d="M4704 1066 c-46 -20 -84 -75 -84 -120 0 -161 250 -174 267 -14 10 94
-97 173 -183 134z m101 -71 c49 -48 19 -125 -50 -125 -42 0 -89 50 -79 84 19
64 85 86 129 41z"/>
<path d="M5845 1069 c-59 -18 -95 -65 -95 -122 0 -53 26 -94 78 -119 38 -18
49 -19 82 -9 79 24 117 82 100 156 -10 46 -26 64 -75 86 -45 21 -48 21 -90 8z
m90 -74 c30 -30 32 -64 4 -99 -42 -54 -129 -21 -129 49 0 68 77 99 125 50z"/>
<path d="M6530 1063 c-22 -12 -36 -26 -38 -42 -7 -49 6 -67 73 -99 36 -18 65
-36 65 -42 0 -19 -49 -23 -75 -6 -34 23 -65 21 -65 -4 0 -53 127 -75 175 -30
48 45 28 91 -56 127 -32 14 -59 31 -59 38 0 21 31 26 63 10 35 -17 77 -20 77
-5 0 18 -48 60 -67 60 -10 0 -27 3 -38 5 -11 3 -36 -2 -55 -12z"/>
<path d="M6771 1062 c-38 -18 -53 -53 -40 -89 5 -13 33 -35 69 -53 34 -17 60
-36 57 -43 -6 -19 -46 -20 -72 -3 -33 22 -55 20 -55 -4 0 -22 30 -45 72 -55
37 -9 95 12 115 41 26 40 3 77 -68 108 -33 14 -59 32 -59 40 0 23 38 30 65 12
49 -32 87 -10 50 28 -13 12 -74 36 -95 36 -3 0 -21 -8 -39 -18z"/>
<path d="M7033 1061 c-52 -24 -75 -58 -75 -115 -1 -58 22 -93 78 -118 75 -33
150 -1 179 76 17 44 17 46 -5 91 -35 72 -106 98 -177 66z m112 -67 c30 -33 32
-63 4 -98 -41 -52 -139 -18 -139 49 0 14 11 37 25 50 33 34 78 33 110 -1z"/>
<path d="M1533 1055 c-8 -22 6 -33 47 -37 l35 -3 3 -97 c3 -96 3 -98 27 -98
30 0 36 20 33 109 -1 39 2 75 7 80 6 5 24 11 40 13 22 2 30 8 30 23 0 19 -8
20 -108 23 -91 2 -108 0 -114 -13z"/>
<path d="M1797 1063 c-4 -3 -7 -60 -7 -125 l0 -118 30 0 c27 0 30 3 30 30 0
48 27 50 64 7 24 -29 38 -37 64 -37 l33 0 -25 33 -24 32 24 30 c35 44 33 96
-7 129 -27 23 -40 26 -103 26 -40 0 -76 -3 -79 -7z m151 -80 c3 -27 -1 -33
-21 -38 -14 -4 -36 -5 -48 -3 -20 2 -25 10 -27 41 l-3 38 48 -3 c46 -3 48 -4
51 -35z"/>
<path d="M2123 1053 c-4 -10 -26 -65 -49 -123 l-42 -105 25 -3 c16 -2 32 4 44
17 27 29 103 30 121 1 12 -19 69 -30 67 -12 0 4 -21 59 -47 122 -45 111 -48
115 -80 118 -24 2 -34 -1 -39 -15z m61 -95 c10 -41 7 -48 -24 -48 -33 0 -35 5
-20 44 12 32 36 34 44 4z"/>
<path d="M2330 945 l0 -125 84 0 c66 0 89 4 106 18 27 22 29 65 4 93 -13 15
-15 22 -6 31 7 7 12 27 12 44 0 49 -28 64 -122 64 l-78 0 0 -125z m144 60 c7
-20 -20 -45 -49 -45 -25 0 -46 26 -38 48 7 18 79 16 87 -3z m6 -90 c22 -27 4
-45 -44 -45 -50 0 -62 10 -46 40 13 24 71 28 90 5z"/>
<path d="M2663 1058 c-10 -14 -77 -176 -88 -215 -5 -20 -3 -23 22 -23 17 0 33
8 41 20 17 28 92 28 117 0 17 -19 65 -28 65 -12 0 13 -30 93 -46 125 -9 17
-22 49 -28 71 -10 35 -16 41 -42 44 -17 2 -35 -3 -41 -10z m51 -100 c10 -39 7
-48 -19 -48 -14 0 -25 6 -25 13 0 28 13 57 25 57 7 0 15 -10 19 -22z"/>
<path d="M2860 945 l0 -125 90 0 c89 0 90 0 90 25 0 22 -4 24 -57 27 l-58 3
-3 98 -3 97 -29 0 -30 0 0 -125z"/>
<path d="M3080 946 l0 -126 25 0 c14 0 25 3 26 8 1 4 2 22 4 40 1 18 5 35 8
38 3 3 27 6 54 7 44 2 48 0 51 -23 6 -60 12 -70 37 -70 l25 0 0 126 0 125 -27
-3 c-26 -3 -28 -7 -31 -50 l-3 -48 -54 0 -54 0 -3 48 c-3 43 -5 47 -30 50
l-28 3 0 -125z"/>
<path d="M3890 945 l0 -125 94 0 c77 0 95 3 100 16 10 27 -3 34 -65 34 -45 0
-61 4 -66 15 -8 23 3 30 50 32 23 0 46 2 50 2 5 1 7 11 5 24 -3 19 -10 22 -55
25 -44 3 -53 6 -53 21 0 21 26 31 86 31 29 0 44 5 48 16 11 29 -4 34 -100 34
l-94 0 0 -125z"/>
<path d="M4929 1068 c-6 -18 -6 -81 -2 -156 l6 -93 26 3 c24 3 26 6 26 55 0
65 11 76 30 31 31 -76 60 -81 94 -18 28 54 41 49 41 -14 0 -53 1 -56 24 -56
22 0 25 5 30 53 3 28 4 84 3 122 l-2 70 -30 3 c-28 3 -33 -2 -65 -65 -19 -37
-39 -68 -45 -68 -5 0 -25 30 -42 68 -30 61 -35 67 -63 67 -16 0 -30 -1 -31 -2z"/>
<path d="M5259 1066 c-2 -2 -3 -59 -1 -125 3 -119 4 -121 26 -121 18 0 25 7
30 30 5 28 9 30 50 30 27 0 52 7 65 18 48 39 43 130 -9 157 -26 13 -150 22
-161 11z m135 -62 c34 -34 7 -77 -44 -72 -38 3 -47 20 -36 64 5 18 13 24 35
24 16 0 37 -7 45 -16z"/>
<path d="M5500 945 l0 -125 29 0 c26 0 30 4 33 32 4 44 23 46 60 4 22 -25 40
-36 60 -36 33 0 34 6 9 39 -18 24 -18 25 5 59 34 50 32 94 -7 126 -27 23 -39
26 -110 26 l-79 0 0 -125z m154 53 c18 -29 -4 -53 -50 -53 -33 0 -39 3 -42 23
-6 41 5 53 44 50 22 -2 42 -10 48 -20z"/>
<path d="M6059 1048 c-8 -212 -7 -228 27 -228 22 0 24 4 24 54 0 30 4 57 8 60
4 3 19 -15 32 -39 38 -69 57 -70 90 -4 11 21 25 39 30 39 6 0 10 -25 10 -56 0
-54 0 -55 28 -52 l27 3 0 120 0 120 -30 3 c-28 3 -33 -2 -65 -64 -19 -37 -39
-69 -45 -70 -5 -2 -25 28 -43 66 -30 64 -35 70 -62 70 -24 0 -30 -4 -31 -22z"/>
<path d="M6382 948 l3 -123 26 -3 c16 -2 29 3 32 11 3 8 4 63 4 123 l-2 109
-33 3 -33 3 3 -123z"/>
</g>
</svg>
